<?xml version="1.0" encoding="UTF-8"?>
<svg id="Layer_1" xmlns="http://www.w3.org/2000/svg" version="1.1" viewBox="0 0 192 192">
  <!-- Generator: Adobe Illustrator 30.3.0, SVG Export Plug-In . SVG Version: 2.1.3 Build 182)  -->
  <defs>
    <style>
      .st0 {
        fill: #60d890;
      }
    </style>
  </defs>
  <rect width="192" height="192" fill="#283430"/>
  <g>
    <path class="st0" d="M135.48,142.59l-6.44-41.54c-.55-1.68-2.11-2.82-3.88-2.82h-11.44l-3.69-6.38c-.6-1.04-2.1-1.04-2.7,0l-1.32,2.29c-1.46,2.54-4.17,4.1-7.1,4.1h-32.09c-1.77,0-3.33,1.14-3.88,2.82l-6.44,41.54c-.73,2.24.94,4.54,3.3,4.54h72.36c2.36,0,4.03-2.3,3.3-4.54ZM80.6,128.8c-2.78,0-5.03-2.25-5.03-5.03s2.25-5.03,5.03-5.03,5.03,2.25,5.03,5.03-2.25,5.03-5.03,5.03ZM96,128.8c-2.78,0-5.03-2.25-5.03-5.03s2.25-5.03,5.03-5.03,5.03,2.25,5.03,5.03-2.25,5.03-5.03,5.03ZM111.4,128.8c-2.78,0-5.03-2.25-5.03-5.03s2.25-5.03,5.03-5.03c2.78,0,5.03,2.25,5.03,5.03s-2.25,5.03-5.03,5.03Z"/>
    <path class="st0" d="M128.25,46.34l-5.47,35.3h-29.71c-3.33,0-6.52,1.12-9.1,3.08l-1.78-3.08h-12.98l-5.47-35.3h64.5M132.18,39.54H59.82c-2.36,0-4.03,2.3-3.3,4.54l6.44,41.54c.55,1.68,2.11,2.82,3.88,2.82h11.44l3.69,6.38c.3.52.82.78,1.35.78s1.05-.26,1.35-.78l1.32-2.29c1.46-2.54,4.17-4.1,7.1-4.1h32.09c1.77,0,3.33-1.14,3.88-2.82l6.44-41.54c.73-2.24-.94-4.54-3.3-4.54h0Z"/>
  </g>
</svg>